<svg width="123" height="56" viewBox="0 0 123 56" fill="none" xmlns="http://www.w3.org/2000/svg">
<g filter="url(#filter0_d_16_4)">
<path d="M7.336 18C6.744 18 6.2 17.856 5.704 17.568C5.208 17.28 4.816 16.888 4.528 16.392C4.24 15.896 4.096 15.352 4.096 14.76V12.936H6.976V14.664C6.976 14.792 7.016 14.896 7.096 14.976C7.192 15.056 7.296 15.096 7.408 15.096H18.04C18.152 15.096 18.248 15.056 18.328 14.976C18.424 14.896 18.472 14.792 18.472 14.664V0.719999H21.376V14.76C21.376 15.352 21.224 15.896 20.92 16.392C20.632 16.888 20.24 17.28 19.744 17.568C19.264 17.856 18.728 18 18.136 18H7.336ZM27.2626 18C26.6706 18 26.1266 17.856 25.6306 17.568C25.1346 17.28 24.7426 16.888 24.4546 16.392C24.1666 15.896 24.0226 15.352 24.0226 14.76V0.719999H26.9026V14.664C26.9026 14.792 26.9426 14.896 27.0226 14.976C27.1186 15.056 27.2226 15.096 27.3346 15.096H37.9666C38.0786 15.096 38.1746 15.056 38.2546 14.976C38.3506 14.896 38.3986 14.792 38.3986 14.664V0.719999H41.3026V14.76C41.3026 15.352 41.1506 15.896 40.8466 16.392C40.5586 16.888 40.1666 17.28 39.6706 17.568C39.1906 17.856 38.6546 18 38.0626 18H27.2626ZM43.9456 18V0.719999H47.2336L58.3216 13.92V0.719999H61.2256V18H57.9376L46.8256 4.776V18H43.9456ZM63.7223 18V0.719999H66.5783V18H63.7223ZM72.2391 18C71.6471 18 71.1031 17.856 70.6071 17.568C70.1111 17.28 69.7191 16.888 69.4311 16.392C69.1431 15.896 68.9991 15.352 68.9991 14.76V3.96C68.9991 3.368 69.1431 2.824 69.4311 2.328C69.7191 1.832 70.1111 1.44 70.6071 1.152C71.1031 0.863999 71.6471 0.719999 72.2391 0.719999H83.0391C83.6311 0.719999 84.1671 0.863999 84.6471 1.152C85.1431 1.44 85.5351 1.832 85.8231 2.328C86.1271 2.824 86.2791 3.368 86.2791 3.96V14.76C86.2791 15.352 86.1271 15.896 85.8231 16.392C85.5351 16.888 85.1431 17.28 84.6471 17.568C84.1671 17.856 83.6311 18 83.0391 18H72.2391ZM72.3111 15.096H82.9431C83.0551 15.096 83.1511 15.056 83.2311 14.976C83.3271 14.896 83.3751 14.792 83.3751 14.664V4.056C83.3751 3.928 83.3271 3.824 83.2311 3.744C83.1511 3.664 83.0551 3.624 82.9431 3.624H72.3111C72.1991 3.624 72.0951 3.664 71.9991 3.744C71.9191 3.824 71.8791 3.928 71.8791 4.056V14.664C71.8791 14.792 71.9191 14.896 71.9991 14.976C72.0951 15.056 72.1991 15.096 72.3111 15.096ZM102.89 18L97.5861 11.664H101.354L106.13 17.328V18H102.89ZM88.9221 18V0.743999H102.962C103.554 0.743999 104.09 0.895999 104.57 1.2C105.066 1.488 105.458 1.88 105.746 2.376C106.05 2.856 106.202 3.392 106.202 3.984V8.736C106.202 9.312 106.05 9.848 105.746 10.344C105.458 10.84 105.066 11.232 104.57 11.52C104.09 11.808 103.554 11.952 102.962 11.952L91.8021 11.976V18H88.9221ZM92.2341 9.048H102.866C102.978 9.048 103.074 9.008 103.154 8.928C103.25 8.848 103.298 8.744 103.298 8.616V4.056C103.298 3.944 103.25 3.848 103.154 3.768C103.074 3.672 102.978 3.624 102.866 3.624H92.2341C92.1221 3.624 92.0181 3.672 91.9221 3.768C91.8421 3.848 91.8021 3.944 91.8021 4.056V8.616C91.8021 8.744 91.8421 8.848 91.9221 8.928C92.0181 9.008 92.1221 9.048 92.2341 9.048Z" fill="url(#paint0_linear_16_4)"/>
<path d="M11.68 48V33.624H4.48V30.72H21.76V33.624H14.56V48H11.68ZM26.7469 48C26.1549 48 25.6109 47.856 25.1149 47.568C24.6189 47.28 24.2269 46.888 23.9389 46.392C23.6509 45.896 23.5069 45.352 23.5069 44.76V33.96C23.5069 33.368 23.6509 32.824 23.9389 32.328C24.2269 31.832 24.6189 31.44 25.1149 31.152C25.6109 30.864 26.1549 30.72 26.7469 30.72H37.5469C38.1389 30.72 38.6749 30.864 39.1549 31.152C39.6509 31.44 40.0429 31.832 40.3309 32.328C40.6349 32.824 40.7869 33.368 40.7869 33.96V44.76C40.7869 45.352 40.6349 45.896 40.3309 46.392C40.0429 46.888 39.6509 47.28 39.1549 47.568C38.6749 47.856 38.1389 48 37.5469 48H26.7469ZM26.8189 45.096H37.4509C37.5629 45.096 37.6589 45.056 37.7389 44.976C37.8349 44.896 37.8829 44.792 37.8829 44.664V34.056C37.8829 33.928 37.8349 33.824 37.7389 33.744C37.6589 33.664 37.5629 33.624 37.4509 33.624H26.8189C26.7069 33.624 26.6029 33.664 26.5069 33.744C26.4269 33.824 26.3869 33.928 26.3869 34.056V44.664C26.3869 44.792 26.4269 44.896 26.5069 44.976C26.6029 45.056 26.7069 45.096 26.8189 45.096ZM57.3979 48L52.0939 41.664H55.8619L60.6379 47.328V48H57.3979ZM43.4299 48V30.744H57.4699C58.0619 30.744 58.5979 30.896 59.0779 31.2C59.5739 31.488 59.9659 31.88 60.2539 32.376C60.5579 32.856 60.7099 33.392 60.7099 33.984V38.736C60.7099 39.312 60.5579 39.848 60.2539 40.344C59.9659 40.84 59.5739 41.232 59.0779 41.52C58.5979 41.808 58.0619 41.952 57.4699 41.952L46.3099 41.976V48H43.4299ZM46.7419 39.048H57.3739C57.4859 39.048 57.5819 39.008 57.6619 38.928C57.7579 38.848 57.8059 38.744 57.8059 38.616V34.056C57.8059 33.944 57.7579 33.848 57.6619 33.768C57.5819 33.672 57.4859 33.624 57.3739 33.624H46.7419C46.6299 33.624 46.5259 33.672 46.4299 33.768C46.3499 33.848 46.3099 33.944 46.3099 34.056V38.616C46.3099 38.744 46.3499 38.848 46.4299 38.928C46.5259 39.008 46.6299 39.048 46.7419 39.048ZM77.2026 48L71.8986 41.664H75.6666L80.4426 47.328V48H77.2026ZM63.2346 48V30.744H77.2746C77.8666 30.744 78.4026 30.896 78.8826 31.2C79.3786 31.488 79.7706 31.88 80.0586 32.376C80.3626 32.856 80.5146 33.392 80.5146 33.984V38.736C80.5146 39.312 80.3626 39.848 80.0586 40.344C79.7706 40.84 79.3786 41.232 78.8826 41.52C78.4026 41.808 77.8666 41.952 77.2746 41.952L66.1146 41.976V48H63.2346ZM66.5466 39.048H77.1786C77.2906 39.048 77.3866 39.008 77.4666 38.928C77.5626 38.848 77.6106 38.744 77.6106 38.616V34.056C77.6106 33.944 77.5626 33.848 77.4666 33.768C77.3866 33.672 77.2906 33.624 77.1786 33.624H66.5466C66.4346 33.624 66.3306 33.672 66.2346 33.768C66.1546 33.848 66.1146 33.944 66.1146 34.056V38.616C66.1146 38.744 66.1546 38.848 66.2346 38.928C66.3306 39.008 66.4346 39.048 66.5466 39.048ZM83.0873 48V30.72H98.9513V33.624H85.9913V37.92H96.4313V40.8H85.9913V45.096H98.9513V48H83.0873ZM104.558 48C103.966 48 103.422 47.856 102.926 47.568C102.446 47.28 102.062 46.888 101.774 46.392C101.486 45.896 101.342 45.352 101.342 44.76V43.608H104.222V44.664C104.222 44.792 104.262 44.896 104.342 44.976C104.422 45.056 104.526 45.096 104.654 45.096H115.262C115.39 45.096 115.494 45.056 115.574 44.976C115.67 44.896 115.718 44.792 115.718 44.664V41.232C115.718 41.12 115.67 41.024 115.574 40.944C115.494 40.848 115.39 40.8 115.262 40.8H104.558C103.966 40.8 103.422 40.656 102.926 40.368C102.446 40.08 102.062 39.696 101.774 39.216C101.486 38.72 101.342 38.176 101.342 37.584V33.96C101.342 33.368 101.486 32.824 101.774 32.328C102.062 31.832 102.446 31.44 102.926 31.152C103.422 30.864 103.966 30.72 104.558 30.72H115.382C115.974 30.72 116.51 30.864 116.99 31.152C117.486 31.44 117.878 31.832 118.166 32.328C118.47 32.824 118.622 33.368 118.622 33.96V35.112H115.718V34.056C115.718 33.928 115.67 33.824 115.574 33.744C115.494 33.664 115.39 33.624 115.262 33.624H104.654C104.526 33.624 104.422 33.664 104.342 33.744C104.262 33.824 104.222 33.928 104.222 34.056V37.488C104.222 37.6 104.262 37.704 104.342 37.8C104.422 37.88 104.526 37.92 104.654 37.92H115.382C115.974 37.92 116.51 38.064 116.99 38.352C117.486 38.64 117.878 39.032 118.166 39.528C118.47 40.008 118.622 40.544 118.622 41.136V44.76C118.622 45.352 118.47 45.896 118.166 46.392C117.878 46.888 117.486 47.28 116.99 47.568C116.51 47.856 115.974 48 115.382 48H104.558Z" fill="white"/>
</g>
<defs>
<filter id="filter0_d_16_4" x="0.0960007" y="0.720001" width="122.526" height="55.28" filterUnits="userSpaceOnUse" color-interpolation-filters="sRGB">
<feFlood flood-opacity="0" result="BackgroundImageFix"/>
<feColorMatrix in="SourceAlpha" type="matrix" values="0 0 0 0 0 0 0 0 0 0 0 0 0 0 0 0 0 0 127 0" result="hardAlpha"/>
<feOffset dy="4"/>
<feGaussianBlur stdDeviation="2"/>
<feComposite in2="hardAlpha" operator="out"/>
<feColorMatrix type="matrix" values="0 0 0 0 0 0 0 0 0 0 0 0 0 0 0 0 0 0 0.54 0"/>
<feBlend mode="normal" in2="BackgroundImageFix" result="effect1_dropShadow_16_4"/>
<feBlend mode="normal" in="SourceGraphic" in2="effect1_dropShadow_16_4" result="shape"/>
</filter>
<linearGradient id="paint0_linear_16_4" x1="-0.597953" y1="8.65517" x2="178.964" y2="5.68565" gradientUnits="userSpaceOnUse">
<stop stop-color="#5D04FF"/>
<stop offset="0.510417" stop-color="#00C7FF"/>
<stop offset="1" stop-color="#00FF29"/>
</linearGradient>
</defs>
</svg>
